<?xml version="1.0" encoding="UTF-8"?>
<svg version="1.1" xmlns="http://www.w3.org/2000/svg" width="254" height="265">
<path d="M0 0 C2.53268387 2.55727304 4.77140179 5.21485154 7.01171875 8.03125 C7.79546875 8.815 8.57921875 9.59875 9.38671875 10.40625 C10.25296875 11.2725 11.11921875 12.13875 12.01171875 13.03125 C12.81609375 13.82208984 12.81609375 13.82208984 13.63671875 14.62890625 C22.40418229 23.84648511 28.71634393 37.67568698 30.4609375 50.27563477 C30.9907893 53.88853826 31.74376682 57.37775195 32.55078125 60.9375 C34.13372713 68.46100437 34.47271353 75.76715045 34.40283203 83.43798828 C34.38672117 85.53093564 34.40280872 87.62195336 34.421875 89.71484375 C34.46476475 116.23953368 24.14785357 142.57088946 6.01171875 162.03125 C5.53895508 162.54494141 5.06619141 163.05863281 4.57910156 163.58789062 C-14.73852854 184.39908829 -41.42167517 199.72004454 -70.27294922 201.19970703 C-84.37972693 201.65476438 -98.31079582 201.82883625 -111.98828125 198.03125 C-113.17164062 197.71414062 -114.355 197.39703125 -115.57421875 197.0703125 C-138.07164637 190.30669354 -156.17209823 178.22999555 -170.98828125 160.03125 C-172.22964844 158.50951172 -172.22964844 158.50951172 -173.49609375 156.95703125 C-180.40387324 148.2040596 -180.40387324 148.2040596 -180.98828125 142.03125 C-181.64828125 142.03125 -182.30828125 142.03125 -182.98828125 142.03125 C-197.53526805 113.26562268 -204.40450534 79.64579215 -194.32177734 47.93505859 C-191.96752819 41.10915714 -189.10939657 34.98842643 -184.98828125 29.03125 C-183.9236071 27.30342114 -182.86108224 25.57426594 -181.80078125 23.84375 C-164.05910088 -3.99298417 -137.45097477 -22.64725387 -105.51318359 -30.42578125 C-67.40683297 -38.62037841 -28.27606338 -26.54678347 0 0 Z " fill="#F6420E" transform="translate(207.98828125,49.96875)"/>
<path d="M0 0 C2.61534278 -0.14612477 5.18495603 -0.11873424 7.80344582 -0.0428524 C8.79874809 -0.03382896 9.79405037 -0.02480553 10.81951332 -0.01550865 C14.11548544 0.02031403 17.40968581 0.0917622 20.70505714 0.16344643 C22.98760524 0.19520272 25.2701852 0.22474111 27.55278969 0.25214577 C33.56532993 0.33031046 39.57696475 0.43866959 45.58890724 0.55321693 C51.72176303 0.66475837 57.85499571 0.74788543 63.98826027 0.8333683 C76.02591104 1.005351 88.06279658 1.20921855 100.09958839 1.43297768 C101.21034223 5.22352224 100.80309744 6.98528211 99.31833839 10.68297768 C98.68556984 12.27915932 98.68556984 12.27915932 98.04001808 13.90758705 C97.32700539 15.65265541 97.32700539 15.65265541 96.59958839 17.43297768 C96.10053364 18.67554238 95.60217897 19.91838845 95.10447121 21.1614933 C89.56000147 34.95302003 83.80890123 48.66222666 78.05982399 62.36937904 C74.67650782 70.43674208 71.31315583 78.5123851 67.95078468 86.58849525 C67.00428435 88.86165836 66.05740346 91.13466244 65.11033058 93.40758705 C64.81490364 94.1165966 64.5194767 94.82560616 64.21509743 95.55610085 C63.6381061 96.9406522 63.06102045 98.32516425 62.48383522 99.70963478 C61.24544189 102.68050996 60.00881808 105.65206283 58.77683449 108.62560463 C56.58731073 113.9055272 54.35999618 119.1667985 52.09177589 124.41344643 C51.58001808 125.59745033 51.06826027 126.78145424 50.54099464 128.00133705 C49.49121895 130.4268163 48.4391106 132.85128719 47.38474464 135.27477455 C44.6583402 141.5938208 42.14669107 147.86107218 40.09958839 154.43297768 C25.71397306 146.36104907 12.64732777 132.39937327 4.09958839 118.43297768 C3.34958839 115.07360268 3.34958839 115.07360268 3.09958839 112.43297768 C2.43958839 112.43297768 1.77958839 112.43297768 1.09958839 112.43297768 C-13.40422032 83.75273193 -20.43535012 49.93808785 -10.21779442 18.32067299 C-8.6733391 13.91746115 -6.91460512 9.64495004 -4.90041161 5.43297768 C-4.57461617 4.55309685 -4.24882072 3.67321602 -3.91315269 2.76667213 C-1.90041161 0.43297768 -1.90041161 0.43297768 0 0 Z " fill="#FEFCFC" transform="translate(23.90041160583496,79.5670223236084)"/>
<path d="M0 0 C1.69425095 1.64442004 3.35267337 3.30932267 5 5 C5.46921875 5.46148437 5.9384375 5.92296875 6.421875 6.3984375 C14.13929254 14.57226145 22 29.60330677 22 41 C21.0246803 42.02408568 20.01801357 43.01834406 19 44 C18.36723145 45.51231201 18.36723145 45.51231201 17.72167969 47.05517578 C16.10602329 49.48508848 15.25665092 49.94474917 12.35900879 50.56854248 C8.79595506 50.79408716 5.27332655 50.83025406 1.703125 50.8046875 C0.39921814 50.81839386 -0.90468872 50.83210022 -2.24810791 50.84622192 C-5.70725737 50.88224923 -9.16552289 50.88263537 -12.62481689 50.87554932 C-16.15759072 50.87463617 -19.69003364 50.90749804 -23.22265625 50.9375 C-30.14848745 50.99135097 -37.07397102 51.00754553 -44 51 C-51.1455588 67.30190114 -58.14386693 83.64738344 -64.875 100.125 C-65.54443284 101.76269562 -66.21386644 103.40039093 -66.88330078 105.03808594 C-67.89546459 107.51474806 -68.90754257 109.99144514 -69.91940308 112.4682312 C-73.38758494 120.95473011 -76.86994906 129.43526617 -80.37896729 137.90496826 C-81.03916725 139.50075155 -81.6975152 141.09730239 -82.35394287 142.69464111 C-83.25993145 144.89865662 -84.17210654 147.1000081 -85.0859375 149.30078125 C-85.35289429 149.95402878 -85.61985107 150.60727631 -85.89489746 151.28031921 C-87.02592445 153.98703504 -87.90316583 155.90316583 -90 158 C-91.91091919 158.24050903 -91.91091919 158.24050903 -94.26611328 158.22705078 C-95.14687531 158.22689972 -96.02763733 158.22674866 -96.93508911 158.22659302 C-97.88721283 158.21627045 -98.83933655 158.20594788 -99.8203125 158.1953125 C-100.79410858 158.1924826 -101.76790466 158.18965271 -102.77120972 158.18673706 C-105.88926349 158.17551913 -109.00703268 158.1504117 -112.125 158.125 C-114.23567294 158.11497228 -116.34635038 158.10584607 -118.45703125 158.09765625 C-123.63811835 158.07557458 -128.81903885 158.04208129 -134 158 C-135.23236689 153.92685824 -134.48350625 151.90097499 -132.875 147.9375 C-132.17890625 146.21466797 -132.17890625 146.21466797 -131.46875 144.45703125 C-129.40279633 139.59434774 -127.22170485 134.79297865 -125 130 C-123.98470459 127.67328135 -122.98511802 125.3396553 -122 123 C-121.608125 122.08347656 -121.21625 121.16695313 -120.8125 120.22265625 C-118.5447696 114.87054253 -116.45607184 109.53882269 -114.671875 104.0078125 C-113.06638067 99.20999805 -110.87296831 94.73668923 -108.5625 90.25 C-105.89734606 84.98371985 -103.9292172 79.56956618 -102 74 C-99.62988502 67.39240673 -96.83357753 61.027203 -93.92578125 54.640625 C-93.40564453 53.48820312 -93.40564453 53.48820312 -92.875 52.3125 C-92.56304687 51.62800781 -92.25109375 50.94351563 -91.9296875 50.23828125 C-90.94673908 47.95586671 -90.94673908 47.95586671 -90.14111328 45.3527832 C-88.84319551 41.53928197 -87.35171789 37.83823069 -85.8125 34.1171875 C-85.50932861 33.38049835 -85.20615723 32.6438092 -84.89379883 31.88479614 C-84.25601763 30.33637091 -83.61724763 28.78835262 -82.97753906 27.24072266 C-82.00058531 24.87641649 -81.02741271 22.5105798 -80.0546875 20.14453125 C-79.43251572 18.63532428 -78.81012731 17.1262066 -78.1875 15.6171875 C-77.75304565 14.56082596 -77.75304565 14.56082596 -77.30981445 13.48312378 C-73.48372825 4.24186412 -73.48372825 4.24186412 -71 3 C-68.78397356 2.90804381 -66.56509793 2.88249982 -64.34716797 2.88647461 C-63.32260498 2.88625557 -63.32260498 2.88625557 -62.27734375 2.8860321 C-60.0155929 2.88672977 -57.753924 2.89451535 -55.4921875 2.90234375 C-53.92562912 2.90420845 -52.35907016 2.90563211 -50.79251099 2.90663147 C-46.66610102 2.91045257 -42.53972616 2.9202794 -38.41333008 2.93133545 C-34.20394363 2.9415583 -29.99455153 2.94613097 -25.78515625 2.95117188 C-17.52342138 2.96190202 -9.26171505 2.97897358 -1 3 C-0.67 2.01 -0.34 1.02 0 0 Z " fill="#FEFCFC" transform="translate(216,59)"/>
<path d="M0 0 C0.96084503 0.00007553 1.92169006 0.00015106 2.91165161 0.00022888 C3.95127045 0.00539017 4.99088928 0.01055145 6.06201172 0.01586914 C7.12459198 0.01728409 8.18717224 0.01869904 9.2819519 0.02015686 C12.68522931 0.02576705 16.0884416 0.0383213 19.49169922 0.05102539 C21.79508369 0.05603908 24.09846918 0.06060221 26.40185547 0.06469727 C32.05682571 0.0757398 37.71175781 0.09248788 43.36669922 0.11352539 C42.91014865 1.70333342 42.44814495 3.29157604 41.98388672 4.87915039 C41.59885986 6.2060791 41.59885986 6.2060791 41.20605469 7.55981445 C40.46520308 9.81383068 39.61541989 11.7814894 38.49169922 13.86352539 C36.59041753 17.44198332 35.25775804 21.09860985 33.92919922 24.92602539 C30.98393619 33.37332886 27.2952145 41.32948723 23.26123047 49.30102539 C21.83747259 52.18584486 20.59740709 55.14304411 19.36669922 58.11352539 C18.93873047 59.13833008 18.51076172 60.16313477 18.06982422 61.21899414 C16.83288673 64.18277976 15.59879685 67.14772517 14.36669922 70.11352539 C13.37669922 70.11352539 12.38669922 70.11352539 11.36669922 70.11352539 C11.03669922 68.79352539 10.70669922 67.47352539 10.36669922 66.11352539 C9.70669922 66.11352539 9.04669922 66.11352539 8.36669922 66.11352539 C-0.83104228 47.92564857 -6.88060041 31.72579191 -6.69580078 11.11352539 C-6.69128906 10.14801758 -6.68677734 9.18250977 -6.68212891 8.18774414 C-6.67045495 5.8296045 -6.65408099 3.47159937 -6.63330078 1.11352539 C-4.21555497 -0.09534751 -2.69999014 -0.00706804 0 0 Z " fill="#F34210" transform="translate(16.63330078125,125.886474609375)"/>
<path d="M0 0 C0 0.99 0 1.98 0 3 C-0.87914062 3.40863281 -1.75828125 3.81726562 -2.6640625 4.23828125 C-10.49168551 8.37207279 -16.97568358 14.76615918 -23.08984375 21.09375 C-25.05854744 23.05842771 -27.12068755 24.83684811 -29.25 26.625 C-32.54218943 29.46507057 -34.65828015 32.31001721 -37 36 C-39.94574037 39.71173568 -42.96776845 43.35873049 -46 47 C-44.02 47.66 -42.04 48.32 -40 49 C-40 49.33 -40 49.66 -40 50 C-43.63 50 -47.26 50 -51 50 C-44.78131169 34.45327923 -18.79144804 0 0 0 Z " fill="#E55016" transform="translate(74,31)"/>
<path d="M0 0 C0.33 0 0.66 0 1 0 C1.29806318 5.76255473 0.8930033 8.88160954 -2 14 C-2.28875 14.969375 -2.5775 15.93875 -2.875 16.9375 C-3.90072221 19.72974379 -4.83381001 21.21069818 -6.625 23.5 C-8.59754152 26.09394911 -9 26.66394073 -9 30.0625 C-9 33.70560018 -10.2893377 34.66054832 -12.69921875 37.2265625 C-14.78397814 40.06884708 -15.41340076 43.2428785 -16.2265625 46.6328125 C-17.0748703 49.22914849 -18.26031747 50.91430327 -20 53 C-20.66 52.67 -21.32 52.34 -22 52 C-21.443125 50.948125 -20.88625 49.89625 -20.3125 48.8125 C-18.57841049 45.34733679 -17.13975938 41.84687883 -15.78125 38.21875 C-12.76364143 30.29801547 -9.48369127 22.49551861 -6.1875 14.6875 C-5.58380209 13.25333193 -4.98028548 11.81908752 -4.37695312 10.38476562 C-2.92004923 6.92229821 -1.46072457 3.46085761 0 0 Z " fill="#D54C17" transform="translate(99,147)"/>
<path d="M0 0 C2 1 2 1 3.0703125 3.875 C5.96807894 14.4907787 6.38684456 25.00284308 6.375 35.9375 C6.37663147 36.64801514 6.37826294 37.35853027 6.37994385 38.09057617 C6.37774574 46.56746096 5.90942228 54.7130194 4 63 C3.67 63 3.34 63 3 63 C3.00333092 62.10464035 3.00333092 62.10464035 3.00672913 61.19119263 C3.02880297 54.99481808 3.04391542 48.79845465 3.05493164 42.60205078 C3.05996943 40.28759304 3.06679981 37.9731385 3.07543945 35.65869141 C3.08752924 32.3375571 3.09323375 29.01646475 3.09765625 25.6953125 C3.10281754 24.65569366 3.10797882 23.61607483 3.11329651 22.54495239 C3.11337204 21.58410736 3.11344757 20.62326233 3.11352539 19.63330078 C3.115746 18.78502716 3.11796661 17.93675354 3.12025452 17.06277466 C3.13232184 14.93597607 3.13232184 14.93597607 2 13 C1.95977609 10.6670134 1.95679753 8.33293334 2 6 C1.21625 6.515625 0.4325 7.03125 -0.375 7.5625 C-1.24125 8.036875 -2.1075 8.51125 -3 9 C-3.66 8.67 -4.32 8.34 -5 8 C-3.35 5.36 -1.7 2.72 0 0 Z " fill="#E56235" transform="translate(236,100)"/>
<path d="M0 0 C0 3.68700325 -1.28540296 4.64877448 -3.62890625 7.32421875 C-6.45890748 10.78310915 -8.46705895 14.66764738 -10.125 18.8125 C-11 21 -11 21 -13 23 C-11.02 23.66 -9.04 24.32 -7 25 C-7 25.33 -7 25.66 -7 26 C-10.63 26 -14.26 26 -18 26 C-13.92837421 15.82093553 -7.52917519 7.87063438 0 0 Z " fill="#DF5822" transform="translate(41,55)"/>
<path d="M0 0 C0.99 0.33 1.98 0.66 3 1 C3.66796875 2.79296875 3.66796875 2.79296875 4.1875 5.1875 C5.66482741 10.75959359 8.25840425 15.25294656 11.30737305 20.08862305 C13.4264523 23.5503288 14.4667664 25.92153291 14 30 C13.67 29.34 13.34 28.68 13 28 C12.34 28 11.68 28 11 28 C9.3382222 24.65350782 7.69854519 21.29663781 6.0625 17.9375 C5.59392578 16.99455078 5.12535156 16.05160156 4.64257812 15.08007812 C2.17385782 9.98279232 0.3698186 5.67317473 0 0 Z " fill="#D75E39" transform="translate(14,164)"/>
<path d="M0 0 C1.15872325 2.3174465 1.10211894 3.60192597 1.0625 6.17578125 C1.05476562 7.00400391 1.04703125 7.83222656 1.0390625 8.68554688 C1.01319505 10.42513281 0.98715575 12.16471619 0.9609375 13.90429688 C0.92177084 18.11797664 1.09107851 21.87110083 2 26 C2.0659735 28.10323534 2.08562245 30.20835724 2.0625 32.3125 C2.05347656 33.38113281 2.04445313 34.44976562 2.03515625 35.55078125 C2.02355469 36.35902344 2.01195312 37.16726562 2 38 C-4.53763308 28.19355039 -2.20810259 12.28716453 -2 1 C-1.34 0.67 -0.68 0.34 0 0 Z " fill="#D75532" transform="translate(12,126)"/>
<path d="M0 0 C0 0.99 0 1.98 0 3 C-0.825 3.37125 -1.65 3.7425 -2.5 4.125 C-5.32195879 5.63676364 -7.55838351 7.11907752 -10.0625 9.0625 C-13.93690484 12.04224265 -16.99892434 14 -22 14 C-5.68191721 0 -5.68191721 0 0 0 Z " fill="#D4582B" transform="translate(74,31)"/>
<path d="M0 0 C1.86785156 0.01353516 1.86785156 0.01353516 3.7734375 0.02734375 C5.18496094 0.04474609 5.18496094 0.04474609 6.625 0.0625 C2.67895008 2.60833866 -1.57190975 2.66075674 -6.125 3.0625 C-10.76505155 3.48010464 -15.20254703 3.94452295 -19.703125 5.1875 C-23.16868314 6.01333513 -24.18034657 6.06336219 -27.375 5.0625 C-25.16790017 4.41246375 -22.95926108 3.76765255 -20.75 3.125 C-19.52023438 2.76535156 -18.29046875 2.40570312 -17.0234375 2.03515625 C-11.22602687 0.48959389 -6.00139889 -0.05661697 0 0 Z " fill="#D34E27" transform="translate(118.375,17.9375)"/>
<path d="M0 0 C11.2872939 -0.65328389 21.12210704 1.23736052 32 4 C32 4.33 32 4.66 32 5 C30.64631959 5.05525226 29.29193765 5.09334369 27.9375 5.125 C27.18339844 5.14820313 26.42929688 5.17140625 25.65234375 5.1953125 C22.26425597 4.9458215 19.26554527 3.93301293 16 3 C13.19826741 2.52080437 10.38685033 2.19025228 7.5625 1.875 C6.83095703 1.78863281 6.09941406 1.70226562 5.34570312 1.61328125 C3.56439906 1.40371607 1.78227719 1.20112132 0 1 C0 0.67 0 0.34 0 0 Z " fill="#DD5530" transform="translate(129,18)"/>
<path d="M0 0 C-1 3 -1 3 -2.8203125 4.16796875 C-7.83162438 6.38483722 -11.51987651 7.46639349 -17 7 C-14.12145363 4.66911211 -11.38015172 3.16775203 -7.9375 1.8125 C-7.08027344 1.46832031 -6.22304687 1.12414062 -5.33984375 0.76953125 C-3 0 -3 0 0 0 Z " fill="#D24F25" transform="translate(91,24)"/>
<path d="M0 0 C0.66 0 1.32 0 2 0 C0.89061647 6.30596952 -0.93197901 11.37529486 -4 17 C-4.33 17 -4.66 17 -5 17 C-4 8.42857143 -4 8.42857143 -3 5 C-2.34 5 -1.68 5 -1 5 C-0.67 3.35 -0.34 1.7 0 0 Z " fill="#EB582B" transform="translate(235,170)"/>
<path d="M0 0 C0.66 0.33 1.32 0.66 2 1 C0.67638087 6.19420233 -1.15396164 10.69129827 -3.625 15.4375 C-3.94984375 16.07365234 -4.2746875 16.70980469 -4.609375 17.36523438 C-5.40071353 18.91299944 -6.1995667 20.4569187 -7 22 C-7.66 21.67 -8.32 21.34 -9 21 C-6.03 14.07 -3.06 7.14 0 0 Z " fill="#D45320" transform="translate(109,123)"/>
<path d="M0 0 C0.47050781 0.40992188 0.94101563 0.81984375 1.42578125 1.2421875 C2.04839844 1.78101563 2.67101562 2.31984375 3.3125 2.875 C3.92738281 3.40867188 4.54226562 3.94234375 5.17578125 4.4921875 C7.13498212 6.1640447 7.13498212 6.1640447 10 8 C10 8.66 10 9.32 10 10 C5.94718288 8.77472971 2.55639236 7.30119506 -1 5 C-0.67 3.35 -0.34 1.7 0 0 Z " fill="#E35A2F" transform="translate(65,229)"/>
<path d="M0 0 C0.66 0 1.32 0 2 0 C0.49539385 6.40597465 -0.90757948 11.77863589 -5 17 C-5.66 16.67 -6.32 16.34 -7 16 C-6.1028125 14.2675 -6.1028125 14.2675 -5.1875 12.5 C-3.14157173 8.42270522 -1.53361514 4.29412239 0 0 Z " fill="#D44D19" transform="translate(84,183)"/>
<path d="M0 0 C0 3.73171722 -1.3866207 4.81972285 -3.77734375 7.5234375 C-5.10860693 8.99996059 -5.10860693 8.99996059 -5.9375 11.0625 C-7.62344186 14.13686457 -10.25420333 15.85111565 -13 18 C-11.56045392 13.70483261 -9.40353948 10.76752344 -6.5 7.3125 C-5.7059375 6.35988281 -4.911875 5.40726563 -4.09375 4.42578125 C-2 2 -2 2 0 0 Z " fill="#D06C3F" transform="translate(41,55)"/>
<path d="M0 0 C0.66 0.33 1.32 0.66 2 1 C1.54625 2.010625 1.0925 3.02125 0.625 4.0625 C-0.48783597 6.63821894 -1.29021159 9.02427619 -2.0625 11.75 C-3 15 -3 15 -5 18 C-5.66 17.67 -6.32 17.34 -7 17 C-4.69 11.39 -2.38 5.78 0 0 Z " fill="#DC541E" transform="translate(147,167)"/>
<path d="M0 0 C0.99 0.33 1.98 0.66 3 1 C1.40207236 2.65189143 -0.20355876 4.2963339 -1.8125 5.9375 C-2.70582031 6.85402344 -3.59914063 7.77054688 -4.51953125 8.71484375 C-7 11 -7 11 -10 12 C-10 11.34 -10 10.68 -10 10 C-9.01 9.34 -8.02 8.68 -7 8 C-6.525625 7.195625 -6.05125 6.39125 -5.5625 5.5625 C-3.94426287 2.90859111 -2.69925093 1.51832865 0 0 Z " fill="#EF4C13" transform="translate(56,43)"/>
<path d="M0 0 C0.99 0.33 1.98 0.66 3 1 C4.52160014 4.6037898 5 7.05220686 5 11 C4.34 11 3.68 11 3 11 C2.49384702 9.73160474 1.99530901 8.46016898 1.5 7.1875 C1.2215625 6.47980469 0.943125 5.77210938 0.65625 5.04296875 C0 3 0 3 0 0 Z " fill="#DE5934" transform="translate(14,164)"/>
<path d="M0 0 C0.66 0.33 1.32 0.66 2 1 C2.3125 3.3125 2.3125 3.3125 2 6 C-0.375 7.875 -0.375 7.875 -3 9 C-3.66 8.67 -4.32 8.34 -5 8 C-3.35 5.36 -1.7 2.72 0 0 Z " fill="#BF4D26" transform="translate(236,100)"/>
<path d="M0 0 C0.66 0.33 1.32 0.66 2 1 C-0.10515339 4.72450216 -1.24267224 6.6795921 -5.25 8.375 C-6.61125 8.684375 -6.61125 8.684375 -8 9 C-7.04270084 7.87411986 -6.08412105 6.7493285 -5.125 5.625 C-4.59132812 4.99851562 -4.05765625 4.37203125 -3.5078125 3.7265625 C-2.38567993 2.44163349 -1.20628025 1.20628025 0 0 Z " fill="#DC6538" transform="translate(50,46)"/>
<path d="M0 0 C0.66 0.33 1.32 0.66 2 1 C1.25 7.75 1.25 7.75 -1 10 C-1.99 9.67 -2.98 9.34 -4 9 C-2.68 6.03 -1.36 3.06 0 0 Z " fill="#DA4F1D" transform="translate(76,202)"/>
<path d="M0 0 C0.66 0.66 1.32 1.32 2 2 C0.8141763 5.37503669 -0.27573689 7.64722731 -3 10 C-3 8.02 -3 6.04 -3 4 C-2.34 4 -1.68 4 -1 4 C-0.67 2.68 -0.34 1.36 0 0 Z " fill="#E1450A" transform="translate(95,160)"/>
<path d="M0 0 C0 3 0 3 -1.53125 4.82421875 C-2.1809375 5.43910156 -2.830625 6.05398437 -3.5 6.6875 C-4.1496875 7.31011719 -4.799375 7.93273437 -5.46875 8.57421875 C-5.9740625 9.04472656 -6.479375 9.51523438 -7 10 C-7.33 9.01 -7.66 8.02 -8 7 C-7.01 6.67 -6.02 6.34 -5 6 C-5 5.34 -5 4.68 -5 4 C-3.37373596 2.61767557 -1.7074998 1.28062485 0 0 Z " fill="#EC7048" transform="translate(216,207)"/>
<path d="M0 0 C0.66 0 1.32 0 2 0 C1.71758359 1.46015291 1.42373386 2.91809793 1.125 4.375 C0.96257812 5.18710938 0.80015625 5.99921875 0.6328125 6.8359375 C0 9 0 9 -2 11 C-1.85892253 9.54119891 -1.71197585 8.08296449 -1.5625 6.625 C-1.48128906 5.81289062 -1.40007812 5.00078125 -1.31640625 4.1640625 C-1 2 -1 2 0 0 Z " fill="#E16A43" transform="translate(235,170)"/>
<path d="M0 0 C1.22589844 0.29197266 1.22589844 0.29197266 2.4765625 0.58984375 C3.41628906 0.82380859 3.41628906 0.82380859 4.375 1.0625 C4.375 1.3925 4.375 1.7225 4.375 2.0625 C2.91707116 2.11649736 1.45857288 2.15529177 0 2.1875 C-0.81210938 2.21070313 -1.62421875 2.23390625 -2.4609375 2.2578125 C-4.625 2.0625 -4.625 2.0625 -6.625 0.0625 C-3.99249612 -1.25375194 -2.82320944 -0.68563658 0 0 Z " fill="#D34722" transform="translate(156.625,20.9375)"/>
<path d="M0 0 C0.99 0.33 1.98 0.66 3 1 C1.02 2.98 -0.96 4.96 -3 7 C-3.66 6.67 -4.32 6.34 -5 6 C-4.34 4.68 -3.68 3.36 -3 2 C-2.01 2 -1.02 2 0 2 C0 1.34 0 0.68 0 0 Z " fill="#EE653D" transform="translate(205,217)"/>
<path d="M0 0 C0.66 0.33 1.32 0.66 2 1 C1.01 3.64 0.02 6.28 -1 9 C-1.99 9 -2.98 9 -4 9 C-2.68 6.03 -1.36 3.06 0 0 Z " fill="#D24F1F" transform="translate(116,106)"/>
<path d="M0 0 C6.75 1.875 6.75 1.875 9 3 C9 3.66 9 4.32 9 5 C5.22454612 3.90931332 2.52956528 3.0916909 0 0 Z " fill="#EC6C46" transform="translate(66,234)"/>
<path d="M0 0 C0.99 0.33 1.98 0.66 3 1 C0.47043472 4.0916909 -2.22454612 4.90931332 -6 6 C-4 4 -2 2 0 0 Z " fill="#E55019" transform="translate(56,43)"/>
</svg>
